<svg width="24" height="24" viewBox="0 0 24 24" fill="none" xmlns="http://www.w3.org/2000/svg">
<path d="M12.344 17.963L10.656 19.037L8.52499 15.687C8.08499 17.089 7.35299 18.352 6.38599 19.512C5.98399 19.995 5.56599 20.43 5.08499 20.887C4.92999 21.034 4.30999 21.604 4.20699 21.707L2.79299 20.293C2.93199 20.154 3.57999 19.558 3.70799 19.437C4.13799 19.029 4.50299 18.647 4.84999 18.231C6.11599 16.713 6.87999 15.021 6.98699 13H2.99999V11H6.99999V6.99996H6.13199C5.44299 8.26596 4.57399 9.22196 3.51399 9.85696L2.48599 8.14296C3.88099 7.30496 4.91099 5.53896 5.52399 2.78296L7.47599 3.21696C7.33599 3.84996 7.17299 4.44396 6.98699 4.99996H11.5V6.99996H8.99999V11H11.5V13H9.18499L12.344 17.963V17.963ZM16.182 17.893L17.298 17H19V6.99996H15V17H15.736L16.182 17.893V17.893ZM13 4.99996H21V19H18L15.5 21L14.5 19H13V4.99996Z" fill="#3645A6"/>
</svg>
